<svg width="24" height="25" viewBox="0 0 24 25" fill="none" xmlns="http://www.w3.org/2000/svg">
<path d="M23.8008 7.52105C23.7863 6.51928 23.601 5.52545 23.2464 4.58853C22.6257 2.98861 21.3619 1.7235 19.762 1.10417C18.837 0.756134 17.859 0.569543 16.8692 0.54837C15.5961 0.491466 15.1925 0.475586 11.9609 0.475586C8.72931 0.475586 8.31511 0.475586 7.05132 0.54837C6.06278 0.569543 5.08483 0.756134 4.15982 1.10417C2.5599 1.7235 1.29479 2.98861 0.675462 4.58853C0.327423 5.51354 0.139509 6.49149 0.120982 7.48003C0.0640784 8.75441 0.046875 9.15802 0.046875 12.3896C0.046875 15.6212 0.046875 16.0341 0.120982 17.2992C0.140832 18.2891 0.327423 19.2657 0.675462 20.1934C1.29611 21.792 2.5599 23.0571 4.16114 23.6764C5.08219 24.0363 6.06014 24.2401 7.05264 24.2719C8.32702 24.3288 8.73064 24.346 11.9622 24.346C15.1938 24.346 15.608 24.346 16.8718 24.2719C17.8604 24.252 18.8383 24.0655 19.7646 23.7174C21.3646 23.0968 22.6284 21.8317 23.249 20.2331C23.597 19.3067 23.7836 18.3301 23.8035 17.3389C23.8604 16.0659 23.8776 15.6622 23.8776 12.4293C23.8749 9.19772 23.8749 8.78749 23.8008 7.52105ZM11.953 18.5008C8.57316 18.5008 5.83517 15.7628 5.83517 12.383C5.83517 9.00319 8.57316 6.2652 11.953 6.2652C15.3301 6.2652 18.0708 9.00319 18.0708 12.383C18.0708 15.7628 15.3301 18.5008 11.953 18.5008ZM18.3143 7.46547C17.5242 7.46547 16.8877 6.82762 16.8877 6.03891C16.8877 5.2502 17.5242 4.61235 18.3143 4.61235C19.1017 4.61235 19.7395 5.2502 19.7395 6.03891C19.7395 6.82762 19.1017 7.46547 18.3143 7.46547Z" fill="white"/>
<path d="M11.9546 16.3573C14.1494 16.3573 15.9286 14.5781 15.9286 12.3833C15.9286 10.1886 14.1494 8.40934 11.9546 8.40934C9.75984 8.40934 7.98062 10.1886 7.98062 12.3833C7.98062 14.5781 9.75984 16.3573 11.9546 16.3573Z" fill="white"/>
</svg>
