<svg width="25" height="34" viewBox="0 0 25 34" fill="none" xmlns="http://www.w3.org/2000/svg">
<path d="M12.0775 1C5.96179 1 1 5.72254 1 11.539C1 18.2316 8.38498 28.8375 11.0967 32.5008C11.2092 32.6554 11.3567 32.7813 11.5272 32.868C11.6977 32.9548 11.8862 33 12.0775 33C12.2687 33 12.4573 32.9548 12.6277 32.868C12.7982 32.7813 12.9457 32.6554 13.0583 32.5008C15.77 28.8391 23.1549 18.237 23.1549 11.539C23.1549 5.72254 18.1932 1 12.0775 1Z" stroke="white" stroke-width="2" stroke-linecap="round" stroke-linejoin="round"/>
<path d="M12.0753 15.7697C14.1146 15.7697 15.7678 14.1166 15.7678 12.0773C15.7678 10.038 14.1146 8.38477 12.0753 8.38477C10.036 8.38477 8.38281 10.038 8.38281 12.0773C8.38281 14.1166 10.036 15.7697 12.0753 15.7697Z" stroke="white" stroke-width="2" stroke-linecap="round" stroke-linejoin="round"/>
</svg>
