<svg width="288" height="85" viewBox="0 0 288 85" fill="none" xmlns="http://www.w3.org/2000/svg">
<path fill-rule="evenodd" clip-rule="evenodd" d="M29.6582 67.7409H55.8726C60.171 67.7409 63.6767 71.2406 63.6767 75.5314V76.8854C63.6767 81.1763 60.171 84.676 55.8726 84.676H7.80533C3.50692 84.676 0.00115967 81.1763 0.00115967 76.8854C0.00115967 53.8538 0.00115967 30.8223 0.00115967 7.79083C0.00115967 3.49989 3.50692 0.000213623 7.80533 0.000213623H55.8726C60.171 0.000213623 63.6767 3.49989 63.6767 7.79083V9.14478C63.6767 13.4356 60.171 16.9353 55.8726 16.9353H29.6582C25.3598 16.9353 21.854 20.4351 21.854 24.7259V26.0799C21.854 30.3708 25.3598 33.8705 29.6582 33.8705H48.019C52.3173 33.8705 55.8232 37.3702 55.8232 41.6611V43.0151C55.8232 47.306 52.3173 50.8057 48.019 50.8057H29.6582C25.3598 50.8057 21.854 54.3053 21.854 58.5963V59.9502C21.854 64.2411 25.3598 67.7409 29.6582 67.7409Z" fill="url(#paint0_linear_85_423)"/>
<path d="M87.5003 11.0292C87.5165 13.1598 86.9055 14.8229 85.6672 16.0183C84.429 17.2137 82.7265 17.8115 80.5595 17.8115C79.2724 17.8115 78.0871 17.5187 77.0036 16.9332C75.9201 16.3476 75.0607 15.5181 74.4253 14.4447C73.7899 13.3712 73.4722 12.1352 73.4722 10.7364V7.17455C73.4722 5.79209 73.7777 4.56412 74.3887 3.49067C74.9996 2.41722 75.8387 1.58361 76.9058 0.989991C77.9731 0.396374 79.1665 0.0994873 80.4862 0.0994873C82.6531 0.0994873 84.3516 0.689144 85.5817 1.8683C86.8119 3.04746 87.435 4.71049 87.4513 6.85739H83.0522C83.036 6.02789 82.812 5.38546 82.3802 4.93006C81.9484 4.47469 81.3171 4.24696 80.4862 4.24696C79.7367 4.24696 79.1176 4.48276 78.6288 4.95444C78.1401 5.42612 77.8957 6.09294 77.8957 6.95502V10.9317C77.8957 11.7937 78.1523 12.4645 78.6655 12.9444C79.1787 13.4241 79.81 13.664 80.5595 13.664C82.2702 13.664 83.1256 12.7858 83.1256 11.0292L87.5003 11.0292Z" fill="white"/>
<path d="M91.4839 7.07696C91.4839 5.80837 91.8015 4.62921 92.437 3.53941C93.0724 2.44973 93.9318 1.58773 95.0153 0.953372C96.0987 0.319096 97.284 0.00193787 98.5712 0.00193787C99.8583 0.00193787 101.044 0.319096 102.127 0.953372C103.211 1.58773 104.07 2.44969 104.705 3.53941C105.341 4.62917 105.658 5.80833 105.658 7.07696V10.834C105.658 12.1026 105.341 13.2818 104.705 14.3716C104.07 15.4613 103.211 16.3233 102.127 16.9576C101.044 17.5919 99.8583 17.9091 98.5712 17.9091C97.284 17.9091 96.0987 17.5919 95.0153 16.9576C93.9318 16.3233 93.0724 15.4613 92.437 14.3716C91.8015 13.2818 91.4839 12.1027 91.4839 10.834V7.07696ZM95.9318 10.834C95.9318 11.6147 96.1762 12.2815 96.6649 12.8345C97.1537 13.3876 97.7891 13.664 98.5712 13.664C99.337 13.664 99.9642 13.3876 100.453 12.8345C100.942 12.2816 101.186 11.6147 101.186 10.834V7.05253C101.186 6.25562 100.942 5.58876 100.453 5.05203C99.9642 4.51531 99.337 4.24693 98.5712 4.24693C97.7891 4.24693 97.1537 4.51531 96.6649 5.05203C96.1762 5.58876 95.9318 6.25558 95.9318 7.05253V10.834Z" fill="white"/>
<path d="M109.783 0.440933H110.761L116.699 10.9315L122.614 0.440933H123.518V17.421H109.783L109.783 0.440933ZM110.687 16.5427H122.614V2.27068L117.115 11.9318H116.26L110.687 2.12435L110.687 16.5427Z" fill="white"/>
<path d="M127.87 0.440933H128.848L134.787 10.9315L140.701 0.440933H141.605V17.421H127.87L127.87 0.440933ZM128.774 16.5427H140.701V2.27068L135.202 11.9318H134.347L128.775 2.12435L128.774 16.5427Z" fill="white"/>
<path d="M146.724 0.465317H159.115V4.75916H151.172V6.90606H157.77V10.9803H151.172V13.1515H159.115V17.4454H146.724V0.465317Z" fill="white"/>
<path d="M177.954 17.4453H164.88V0.465317H171.503C172.92 0.465317 174.077 0.717428 174.973 1.22161C175.853 1.70952 176.537 2.37634 177.026 3.22218C177.515 4.06791 177.759 5.00311 177.759 6.02775C177.759 7.29634 177.368 8.4308 176.586 9.43105C175.804 10.4313 174.818 11.0941 173.629 11.4194L177.954 17.4453ZM166.419 1.36801L173.067 10.6387C174.158 10.411 175.063 9.86611 175.779 9.00411C176.496 8.14203 176.855 7.14998 176.855 6.02771C176.855 5.13317 176.635 4.31991 176.195 3.58804C175.755 2.85617 175.136 2.29502 174.337 1.90474C173.621 1.54692 172.684 1.36801 171.527 1.36801H166.419ZM165.784 1.95348V10.7119H172.065L165.784 1.95348ZM165.784 16.5427H176.244L172.676 11.5902L171.918 11.6146H165.784V16.5427Z" fill="white"/>
<path d="M196.009 11.0292C196.025 13.1598 195.414 14.8229 194.176 16.0183C192.938 17.2137 191.235 17.8115 189.068 17.8115C187.781 17.8115 186.596 17.5187 185.512 16.9332C184.429 16.3476 183.569 15.5181 182.934 14.4447C182.299 13.3712 181.981 12.1352 181.981 10.7364V7.17455C181.981 5.79209 182.286 4.56412 182.897 3.49067C183.508 2.41722 184.347 1.58361 185.414 0.989991C186.482 0.396374 187.675 0.0994873 188.995 0.0994873C191.162 0.0994873 192.86 0.689144 194.09 1.8683C195.321 3.04746 195.944 4.71049 195.96 6.85739H191.561C191.545 6.02789 191.321 5.38546 190.889 4.93006C190.457 4.47469 189.826 4.24696 188.995 4.24696C188.245 4.24696 187.626 4.48276 187.137 4.95444C186.649 5.42612 186.404 6.09294 186.404 6.95502V10.9317C186.404 11.7937 186.661 12.4645 187.174 12.9444C187.687 13.4241 188.319 13.664 189.068 13.664C190.779 13.664 191.634 12.7858 191.634 11.0292L196.009 11.0292Z" fill="white"/>
<path d="M200.972 0.465317H213.362V4.75916H205.419V6.90606H212.018V10.9803H205.419V13.1515H213.362V17.4454H200.972V0.465317Z" fill="white"/>
<path d="M87.5003 44.5749C87.5165 46.7055 86.9055 48.3686 85.6672 49.5639C84.429 50.7594 82.7265 51.3571 80.5595 51.3571C79.2724 51.3571 78.0871 51.0644 77.0036 50.4788C75.9201 49.8933 75.0607 49.0638 74.4253 47.9904C73.7899 46.9169 73.4722 45.6809 73.4722 44.2821V40.7202C73.4722 39.3378 73.7777 38.1098 74.3887 37.0364C74.9996 35.9629 75.8387 35.1293 76.9058 34.5357C77.9731 33.9421 79.1665 33.6452 80.4862 33.6452C82.6531 33.6452 84.3516 34.2348 85.5817 35.414C86.8119 36.5931 87.435 38.2562 87.4513 40.4031H83.0522C83.036 39.5736 82.812 38.9311 82.3802 38.4757C81.9484 38.0204 81.3171 37.7926 80.4862 37.7926C79.7367 37.7926 79.1176 38.0284 78.6288 38.5001C78.1401 38.9718 77.8957 39.6386 77.8957 40.5007V44.4773C77.8957 45.3393 78.1523 46.0102 78.6655 46.49C79.1787 46.9698 79.81 47.2097 80.5595 47.2097C82.2702 47.2097 83.1256 46.3315 83.1256 44.5749L87.5003 44.5749Z" fill="white"/>
<path d="M92.4697 34.0106H104.86V38.3044H96.9176V40.4513H103.516V44.5255H96.9176V46.6968H104.86V50.9906H92.4697V34.0106Z" fill="white"/>
<path d="M110.036 50.9662V33.9862H110.99L122.867 45.5258V33.9862H123.771V50.9662H110.036Z" fill="white"/>
<path d="M134.298 50.9906V38.3044H127.87V34.0106H141.605V38.3044H135.177V50.9906H134.298Z" fill="white"/>
<path d="M159.86 50.9906H146.786V34.0106H153.409C154.826 34.0106 155.983 34.2627 156.879 34.7669C157.759 35.2548 158.443 35.9216 158.932 36.7675C159.421 37.6132 159.665 38.5484 159.665 39.573C159.665 40.8416 159.274 41.9761 158.492 42.9763C157.71 43.9766 156.724 44.6394 155.535 44.9647L159.86 50.9906ZM148.325 34.9133L154.973 44.184C156.064 43.9563 156.969 43.4114 157.685 42.5494C158.402 41.6873 158.761 40.6953 158.761 39.573C158.761 38.6784 158.541 37.8652 158.101 37.1333C157.661 36.4014 157.042 35.8403 156.244 35.45C155.527 35.0922 154.59 34.9133 153.433 34.9133H148.325ZM147.69 35.4987V44.2571H153.971L147.69 35.4987ZM147.69 50.0879H158.15L154.582 45.1355L153.824 45.1598H147.69V50.0879Z" fill="white"/>
<path d="M178.926 50.9912H162.894L170.91 33.6452L178.926 50.9912ZM164.312 50.0885H177.509L170.91 35.7921L164.312 50.0885Z" fill="white"/>
<path d="M196.433 46.6724V50.9906H183.48V34.0106H184.384V46.6724H196.433Z" fill="white"/>
<path d="M233.174 50.9912H217.142L225.158 33.6452L233.174 50.9912ZM218.559 50.0885H231.756L225.158 35.7921L218.559 50.0885Z" fill="white"/>
<path d="M243.373 51.4298C241.01 51.4298 239.189 50.8728 237.91 49.7587C236.631 48.6446 236 46.9734 236.016 44.7453H240C239.984 45.6723 240.261 46.3798 240.831 46.8678C241.401 47.3557 242.2 47.5996 243.226 47.5996C244.073 47.5996 244.741 47.4614 245.23 47.1848C245.719 46.9084 245.963 46.4855 245.963 45.9163C245.963 45.4446 245.715 45.1031 245.218 44.8916C244.721 44.6801 244.228 44.5298 243.739 44.4403C243.25 44.3508 242.949 44.298 242.835 44.2817C241.58 44.0377 240.497 43.7409 239.585 43.3912C238.672 43.0415 237.906 42.5089 237.287 41.7932C236.668 41.0776 236.359 40.1343 236.359 38.9632C236.359 37.7922 236.668 36.796 237.287 35.9747C237.906 35.1532 238.733 34.5393 239.768 34.1327C240.802 33.7261 241.931 33.5228 243.153 33.5228C244.635 33.5228 245.918 33.7993 247.002 34.3523C248.085 34.9053 248.937 35.7428 249.556 36.8651C249.865 37.4018 250.053 37.9183 250.118 38.4143C250.183 38.9103 250.216 39.3942 250.216 39.8659H246.232C246.232 38.9876 245.996 38.3411 245.523 37.9263C245.051 37.5116 244.318 37.3043 243.324 37.3043C242.525 37.3043 241.906 37.4424 241.466 37.719C241.026 37.9955 240.806 38.3696 240.806 38.8412C240.806 39.3617 241.1 39.7439 241.686 39.9878C242.273 40.2318 243.014 40.4514 243.91 40.6466C245.377 40.9393 246.521 41.2199 247.344 41.4882C248.167 41.7566 248.879 42.2323 249.482 42.9154C250.085 43.5986 250.387 44.5582 250.387 45.7942C250.387 46.9652 250.061 47.9736 249.409 48.8194C248.757 49.6651 247.898 50.3116 246.831 50.7589C245.764 51.2062 244.611 51.4298 243.373 51.4298Z" fill="white"/>
<path d="M255.835 38.3044V34.0106H266.833V38.3044H261.774V46.6968H266.833V50.9906H255.835V46.6968H260.894V38.3044H255.835Z" fill="white"/>
<path d="M287.435 50.9912H271.403L279.419 33.6452L287.435 50.9912ZM272.82 50.0885H286.017L279.419 35.7921L272.82 50.0885Z" fill="white"/>
<path d="M74.3827 67.5558H86.7733V71.8497H78.8305V73.9966H85.4291V78.0707H78.8305V80.2421H86.7733V84.5359H74.3827V67.5558Z" fill="white"/>
<path d="M91.3744 84.5359L98.0463 76.0459L91.3744 67.5558H105.818L99.146 76.0459L105.818 84.5359H91.3744ZM98.5839 75.314L103.985 68.4585H93.2073L98.5839 75.314ZM103.985 83.6332L98.5839 76.7777L93.2073 83.6332H103.985Z" fill="white"/>
<path d="M111.022 84.5359V67.5558H118.134C119.323 67.5558 120.35 67.7754 121.213 68.2146C122.207 68.7188 122.997 69.4384 123.584 70.3736C124.171 71.3089 124.464 72.3376 124.464 73.4598C124.464 74.5821 124.175 75.6148 123.596 76.5582C123.018 77.5015 122.232 78.2252 121.238 78.7295C120.391 79.1686 119.356 79.3882 118.134 79.3882H115.47V84.5359H111.022Z" fill="white"/>
<path d="M127.658 74.1679C127.658 72.8993 127.976 71.7202 128.611 70.6304C129.247 69.5407 130.106 68.6787 131.189 68.0443C132.273 67.4101 133.458 67.0929 134.745 67.0929C136.032 67.0929 137.218 67.4101 138.301 68.0443C139.385 68.6787 140.244 69.5406 140.88 70.6304C141.515 71.7201 141.833 72.8993 141.833 74.1679V77.925C141.833 79.1936 141.515 80.3727 140.88 81.4625C140.244 82.5522 139.385 83.4142 138.301 84.0486C137.218 84.6829 136.032 85 134.745 85C133.458 85 132.273 84.6829 131.189 84.0486C130.106 83.4142 129.247 82.5523 128.611 81.4625C127.976 80.3728 127.658 79.1936 127.658 77.925V74.1679ZM132.106 77.925C132.106 78.7057 132.35 79.3725 132.839 79.9255C133.328 80.4785 133.963 80.755 134.745 80.755C135.511 80.755 136.138 80.4785 136.627 79.9255C137.116 79.3725 137.36 78.7057 137.36 77.925V74.1435C137.36 73.3466 137.116 72.6797 136.627 72.143C136.138 71.6063 135.511 71.3379 134.745 71.3379C133.963 71.3379 133.328 71.6063 132.839 72.143C132.35 72.6797 132.106 73.3465 132.106 74.1435V77.925Z" fill="white"/>
<path d="M167.879 83.6333V84.536H157.322V83.6333L160.987 79.608L164.311 75.9972L164.604 75.6801C165.256 74.997 165.761 74.3748 166.12 73.8137C166.478 73.2527 166.657 72.6468 166.657 71.9962C166.657 71.2643 166.474 70.5975 166.107 69.9957C165.741 69.3939 165.236 68.9222 164.592 68.5806C163.949 68.2391 163.236 68.0683 162.454 68.0683C161.704 68.0683 161.008 68.2554 160.364 68.6294C159.721 69.0035 159.212 69.5118 158.837 70.1542C158.462 70.7966 158.275 71.5001 158.275 72.2645H157.371C157.371 71.3375 157.599 70.4876 158.055 69.7151C158.511 68.9425 159.126 68.3285 159.9 67.8732C160.674 67.4177 161.525 67.19 162.454 67.19C163.415 67.19 164.283 67.3974 165.057 67.8121C165.831 68.2268 166.442 68.8002 166.89 69.5321C167.338 70.264 167.562 71.0853 167.562 71.9961C167.562 72.8094 167.358 73.5331 166.951 74.1675C166.543 74.8018 165.981 75.5093 165.264 76.29L164.971 76.6071L158.544 83.6333L167.879 83.6333Z" fill="white"/>
<path d="M186.429 79.1688C186.429 80.2098 186.173 81.1694 185.66 82.0476C185.146 82.9259 184.45 83.6212 183.57 84.1336C182.69 84.6459 181.729 84.9021 180.686 84.9021C179.644 84.9021 178.682 84.6459 177.802 84.1336C176.923 83.6211 176.226 82.9259 175.713 82.0476C175.2 81.1694 174.943 80.2098 174.943 79.1688V72.9477C174.943 71.9067 175.2 70.9471 175.713 70.0689C176.226 69.1906 176.923 68.4952 177.802 67.9829C178.682 67.4706 179.644 67.2144 180.686 67.2144C181.729 67.2144 182.69 67.4706 183.57 67.9829C184.45 68.4952 185.146 69.1906 185.66 70.0689C186.173 70.9471 186.429 71.9067 186.429 72.9477V79.1688ZM175.823 79.1688C175.823 79.7217 175.929 80.291 176.141 80.8766L184.768 70.3616C184.328 69.6785 183.749 69.1336 183.032 68.7271C182.316 68.3205 181.534 68.1172 180.686 68.1172C179.806 68.1172 178.996 68.3327 178.255 68.7636C177.513 69.1946 176.923 69.7802 176.483 70.5202C176.043 71.2603 175.823 72.0694 175.823 72.9477V79.1688ZM185.55 72.9477C185.55 72.3946 185.444 71.8254 185.232 71.2399L176.605 81.7548C177.045 82.4542 177.623 83.0071 178.34 83.4138C179.057 83.8204 179.839 84.0237 180.686 84.0237C181.566 84.0237 182.377 83.8041 183.118 83.365C183.859 82.9259 184.45 82.3363 184.89 81.5962C185.33 80.8562 185.55 80.0471 185.55 79.1687V72.9477Z" fill="white"/>
<path d="M204.047 83.6333V84.536H193.489V83.6333L197.155 79.608L200.479 75.9972L200.772 75.6801C201.423 74.997 201.929 74.3748 202.287 73.8137C202.645 73.2527 202.825 72.6468 202.825 71.9962C202.825 71.2643 202.641 70.5975 202.275 69.9957C201.908 69.3939 201.403 68.9222 200.759 68.5806C200.116 68.2391 199.403 68.0683 198.621 68.0683C197.872 68.0683 197.175 68.2554 196.532 68.6294C195.888 69.0035 195.379 69.5118 195.004 70.1542C194.629 70.7966 194.442 71.5001 194.442 72.2645H193.538C193.538 71.3375 193.766 70.4876 194.222 69.7151C194.678 68.9425 195.293 68.3285 196.067 67.8732C196.841 67.4177 197.692 67.19 198.621 67.19C199.582 67.19 200.45 67.3974 201.224 67.8121C201.998 68.2268 202.609 68.8002 203.057 69.5321C203.505 70.264 203.729 71.0853 203.729 71.9961C203.729 72.8094 203.525 73.5331 203.118 74.1675C202.711 74.8018 202.149 75.5093 201.432 76.29L201.138 76.6071L194.711 83.6333L204.047 83.6333Z" fill="white"/>
<path d="M219.57 67.605L214.854 74.0945C215.505 73.8343 216.173 73.7042 216.858 73.7042C217.868 73.7042 218.805 73.9563 219.668 74.4605C220.532 74.9646 221.212 75.6437 221.709 76.4975C222.206 77.3514 222.454 78.2826 222.454 79.291C222.454 80.2994 222.202 81.2346 221.696 82.0966C221.191 82.9586 220.511 83.6417 219.656 84.1459C218.8 84.6501 217.868 84.9022 216.858 84.9022C215.847 84.9022 214.915 84.6501 214.059 84.1459C213.204 83.6417 212.524 82.9586 212.019 82.0966C211.514 81.2346 211.261 80.2994 211.261 79.291C211.261 78.0711 211.619 76.9733 212.336 75.9974L218.47 67.605H219.57ZM216.857 83.9995C217.705 83.9995 218.491 83.788 219.216 83.3652C219.941 82.9423 220.515 82.3691 220.939 81.6453C221.362 80.9215 221.574 80.1368 221.574 79.291C221.574 78.4453 221.362 77.6646 220.939 76.9489C220.515 76.2333 219.941 75.664 219.216 75.2411C218.491 74.8183 217.705 74.6068 216.857 74.6068C216.01 74.6068 215.224 74.8183 214.499 75.2411C213.774 75.664 213.2 76.2333 212.776 76.9489C212.353 77.6646 212.141 78.4453 212.141 79.291C212.141 80.1367 212.353 80.9214 212.776 81.6453C213.2 82.3691 213.774 82.9423 214.499 83.3652C215.224 83.788 216.01 83.9995 216.857 83.9995Z" fill="white"/>
<defs>
<linearGradient id="paint0_linear_85_423" x1="8.91019" y1="-0.587913" x2="54.6437" y2="85.3301" gradientUnits="userSpaceOnUse">
<stop stop-color="#FA1593"/>
<stop offset="0.368627" stop-color="#750037"/>
<stop offset="0.65098" stop-color="#004B6B"/>
<stop offset="1" stop-color="#95DEFF"/>
</linearGradient>
</defs>
</svg>
