<svg width="20" height="20" viewBox="0 0 20 20" fill="none" xmlns="http://www.w3.org/2000/svg">
<path d="M4.38668 4.38617C4.67958 4.09328 5.15445 4.09328 5.44734 4.38618L10.0003 8.93919L14.5534 4.38619C14.8462 4.0933 15.3211 4.0933 15.614 4.3862C15.9069 4.67909 15.9069 5.15396 15.614 5.44686L11.061 9.99985L15.614 14.5529C15.9069 14.8458 15.9069 15.3206 15.614 15.6135C15.3211 15.9064 14.8462 15.9064 14.5533 15.6135L10.0003 11.0605L5.44732 15.6135C5.15443 15.9064 4.67955 15.9064 4.38666 15.6135C4.09377 15.3206 4.09377 14.8457 4.38666 14.5528L8.93967 9.99985L4.38668 5.44683C4.09379 5.15394 4.09379 4.67906 4.38668 4.38617Z" fill="#ffffff"/>
</svg>
