<svg width="29" height="25" viewBox="0 0 29 25" fill="none" xmlns="http://www.w3.org/2000/svg">
<path d="M28.2007 0.863454L23.7405 23.3511C23.7405 23.3511 23.1168 24.9106 21.4013 24.1621L11.1087 16.271L7.36605 14.4621L1.06577 12.3411C1.06577 12.3411 0.0988933 11.9981 0.00524935 11.2495C-0.0881995 10.501 1.09698 10.0956 1.09698 10.0956L26.1421 0.270766C26.1421 0.270766 28.2007 -0.633678 28.2007 0.863454Z" fill="white"/>
<path d="M10.3187 23.0986C10.3187 23.0986 10.0183 23.0705 9.64391 21.8851C9.26972 20.7 7.36719 14.4621 7.36719 14.4621L22.494 4.85579C22.494 4.85579 23.3674 4.32553 23.3362 4.85579C23.3362 4.85579 23.4921 4.94924 23.0243 5.38585C22.5564 5.82266 11.141 16.0839 11.141 16.0839" fill="#0C0C0C"/>
<path d="M15.054 19.2969L10.9828 23.0087C10.9828 23.0087 10.6646 23.2502 10.3164 23.0988L11.096 16.2041" fill="white"/>
</svg>
