<svg width="32" height="32" viewBox="0 0 32 32" fill="none" xmlns="http://www.w3.org/2000/svg">
<path d="M5.00781 5.35156C11.0534 -0.624774 20.7493 -0.624774 26.7949 5.35156L27.1533 5.70605L27.5049 5.34375L31.5 1.23145V12.1582H21.1279L25.1758 7.99316L25.5215 7.6377L25.1689 7.28906C20.1299 2.30572 11.9581 2.1096 6.90039 7.11133H6.89941C1.8488 12.1246 1.84894 20.2122 6.89941 25.2256C11.948 30.2369 20.1213 30.2369 25.1699 25.2256L25.1689 25.2246C27.5644 22.8638 28.8227 20.1 28.9336 16.6777H31.4883C31.3485 20.0026 29.8342 24.1587 26.9551 27.0049H26.9541C20.9086 32.9982 11.0894 32.9981 5.04395 27.0049C-0.983511 21.0295 -1.03247 11.3226 5.00781 5.35156ZM16.3877 9.38867V16.7285L16.6328 16.874L22.4248 20.3154L21.6553 21.6074L14.7207 17.4922V9.38867H16.3877Z" fill="white" stroke="#191919"/>
</svg>
